<?xml version="1.0" encoding="UTF-8" standalone="no"?>
<!-- Created with Inkscape (http://www.inkscape.org/) -->

<svg
   width="93.200157mm"
   height="53.234932mm"
   viewBox="0 0 93.200157 53.234932"
   version="1.1"
   id="svg5"
   inkscape:version="1.2.2 (b0a8486541, 2022-12-01)"
   sodipodi:docname="iterador.svg"
   xmlns:inkscape="http://www.inkscape.org/namespaces/inkscape"
   xmlns:sodipodi="http://sodipodi.sourceforge.net/DTD/sodipodi-0.dtd"
   xmlns="http://www.w3.org/2000/svg"
   xmlns:svg="http://www.w3.org/2000/svg">
  <sodipodi:namedview
     id="namedview7"
     pagecolor="#ffffff"
     bordercolor="#666666"
     borderopacity="1.0"
     inkscape:showpageshadow="2"
     inkscape:pageopacity="0.0"
     inkscape:pagecheckerboard="0"
     inkscape:deskcolor="#d1d1d1"
     inkscape:document-units="mm"
     showgrid="false"
     inkscape:zoom="1.6819304"
     inkscape:cx="284.79181"
     inkscape:cy="128.42386"
     inkscape:window-width="1366"
     inkscape:window-height="699"
     inkscape:window-x="0"
     inkscape:window-y="0"
     inkscape:window-maximized="1"
     inkscape:current-layer="layer1" />
  <defs
     id="defs2">
    <inkscape:path-effect
       effect="skeletal"
       id="path-effect611"
       is_visible="true"
       lpeversion="1"
       pattern="m 52.228067,50 c 0,0 1.037518,-6.445726 3.432627,-6.323084 4.097614,0.20982 3.045805,8.87434 3.363106,10.812341 C 60.702767,54.637983 61.351035,50 61.351035,50"
       copytype="repeated_stretched"
       prop_scale="1"
       scale_y_rel="false"
       spacing="0"
       normal_offset="0"
       tang_offset="0"
       prop_units="false"
       vertical_pattern="false"
       hide_knot="false"
       fuse_tolerance="0" />
    <inkscape:path-effect
       effect="skeletal"
       id="path-effect599"
       is_visible="true"
       lpeversion="1"
       pattern="m 52.228067,50 c 0,0 1.037518,-6.445726 3.432627,-6.323084 4.097614,0.20982 3.045805,8.87434 3.363106,10.812341 C 60.702767,54.637983 61.351035,50 61.351035,50"
       copytype="repeated"
       prop_scale="1"
       scale_y_rel="false"
       spacing="0"
       normal_offset="0"
       tang_offset="0"
       prop_units="false"
       vertical_pattern="false"
       hide_knot="false"
       fuse_tolerance="0.9" />
    <inkscape:path-effect
       effect="skeletal"
       id="path-effect573"
       is_visible="true"
       lpeversion="1"
       pattern="m 52.228067,50 c 0,0 1.037518,-6.445726 3.432627,-6.323084 4.097614,0.20982 3.045805,8.87434 3.363106,10.812341 C 60.702767,54.637983 61.351035,50 61.351035,50"
       copytype="repeated"
       prop_scale="3"
       scale_y_rel="false"
       spacing="0"
       normal_offset="0"
       tang_offset="0"
       prop_units="false"
       vertical_pattern="false"
       hide_knot="false"
       fuse_tolerance="0" />
  </defs>
  <g
     inkscape:label="Capa 1"
     inkscape:groupmode="layer"
     id="layer1"
     transform="translate(-23.299,-88.319756)">
    <path
       style="fill:none;stroke:#000000;stroke-width:0.264583px;stroke-linecap:butt;stroke-linejoin:miter;stroke-opacity:1"
       d="m 74.600873,107.22904 v 17.44474"
       id="path1235" />
    <path
       style="fill:none;stroke:#000000;stroke-width:0.264583px;stroke-linecap:butt;stroke-linejoin:miter;stroke-opacity:1"
       d="M 79.77164,107.16704 H 57.115868 v 17.59938 h 21.355284"
       id="path274"
       sodipodi:nodetypes="cccc" />
    <path
       style="fill:#00ff00;stroke:none;stroke-width:0.189471px;stroke-linecap:butt;stroke-linejoin:miter;stroke-opacity:1"
       d="m 64.134343,91.760914 v 7.896109 h -3.248129 l 4.908211,4.836167 4.836175,-4.836167 h -3.248129 v -7.896109 z"
       id="path623"
       sodipodi:nodetypes="cccccccc" />
    <path
       style="fill:none;stroke:#000000;stroke-width:0.264583px;stroke-linecap:butt;stroke-linejoin:miter;stroke-dasharray:0.793749, 0.793749;stroke-dashoffset:0;stroke-opacity:1"
       d="M 57.134622,107.167 H 39.712 v 17.599 h 17.339667"
       id="path625"
       sodipodi:nodetypes="cccc" />
    <path
       style="fill:none;stroke:#000000;stroke-width:0.264583px;stroke-linecap:butt;stroke-linejoin:miter;stroke-dasharray:0.793749, 0.793749;stroke-dashoffset:0;stroke-opacity:1"
       d="M 40.853913,107.167 H 23.431291 v 17.599 h 17.339667"
       id="path625-3"
       sodipodi:nodetypes="cccc" />
    <path
       id="path39926"
       style="color:#000000;fill:#666666;stroke-width:0.198218;stroke-linejoin:round;-inkscape-stroke:none"
       d="m 132.94734,92.757616 c -4.42003,0 -8.4294,1.04588 -11.36736,2.76648 -1.20866,0.70784 -2.23624,1.53911 -3.03382,2.46123 -2.43421,-2.87104 -6.41849,-4.69182 -10.88245,-4.83058 v 1.1e-4 c -0.24269,-0.008 -0.48676,-0.0102 -0.73207,-0.008 -0.73594,0.007 -1.48284,0.0601 -2.23578,0.16103 l 0.12005,0.89505 c 6.38303,-0.85571 12.15622,1.92234 14.35447,6.369404 0.31349,-0.0392 0.62757,-0.0796 0.93879,-0.11482 -0.27982,-0.609034 -0.60405,-1.196624 -0.99554,-1.745034 0.73273,-0.88623 1.71508,-1.70201 2.92279,-2.4093 2.76535,-1.61951 6.63416,-2.64263 10.91092,-2.64263 4.27677,0 8.14507,1.02312 10.91042,2.64263 1.17335,0.68717 2.13984,1.47503 2.86584,2.33207 -1.54581,-0.58695 -3.22572,-0.94483 -4.97942,-1.02391 -0.24326,-0.011 -0.48789,-0.0166 -0.73372,-0.017 -0.73747,-9.9e-4 -1.48573,0.0464 -2.23997,0.14545 l 0.061,0.46207 -0.0624,-0.46135 c -2.45083,0.32768 -4.68665,1.16928 -6.59722,2.367814 0.5389,0.0353 1.07058,0.0769 1.59199,0.12702 1.53778,-0.788914 3.26056,-1.350674 5.12404,-1.599994 5e-4,-5e-5 9.9e-4,6e-5 0.001,0 0.71456,-0.0938 1.42235,-0.13906 2.1189,-0.13869 0.23215,1.1e-4 0.46305,0.005 0.69254,0.0155 v 0 c 6.42998,0.28448 11.76182,4.462804 12.51952,10.154774 0.8659,6.50491 -4.54712,12.64868 -12.19389,13.67187 -1.02542,0.13466 -2.0334,0.15891 -3.01774,0.10294 -0.46162,0.25821 -0.93375,0.51337 -1.41888,0.76465 1.46573,0.2078 2.99521,0.23279 4.55401,0.0281 a 0.45169139,0.45169139 0 0 0 0.001,0 c 1.39296,-0.18625 2.71968,-0.53565 3.95673,-1.02247 -0.27985,1.72741 -1.38357,3.41216 -3.14096,4.86068 -2.28089,1.88001 -5.63205,3.32168 -9.48467,3.83699 -3.84265,0.50483 -7.44783,-0.0113 -10.13736,-1.22918 -0.51543,-0.23339 -0.98402,-0.49837 -1.42647,-0.77868 -0.39241,0.0949 -0.78746,0.18725 -1.18483,0.27728 0.66658,0.50168 1.41208,0.9502 2.23854,1.32445 0.20552,0.0931 0.41672,0.18099 0.63099,0.26601 -0.45744,0.5229 -0.97722,1.02877 -1.55973,1.51097 -2.68022,2.21866 -6.6088,3.91231 -11.12306,4.5114 a 0.45169255,0.45169255 0 0 0 -9.9e-4,0 c -4.51349,0.60935 -8.74746,-9.9e-4 -11.914652,-1.44675 -2.432014,-1.11027 -4.213885,-2.69497 -5.076006,-4.58617 0.162539,-0.0905 0.31854,-0.18997 0.476103,-0.28732 -0.567349,-0.10118 -1.124938,-0.20891 -1.66196,-0.33014 0.01884,0.0637 0.03306,0.12901 0.05347,0.19216 -1.024512,0.47872 -2.138579,0.81572 -3.323088,0.97505 -6.147023,0.80864 -11.793813,-3.44927 -12.601871,-9.52646 v -2.9e-4 c -0.377908,-2.8451 0.382806,-5.56988 1.919161,-7.75757 0.711627,1.19949 1.753101,2.26948 3.032801,3.15244 0.272244,0.18784 0.559943,0.3639 0.853254,0.5351 0.135475,-0.26149 0.284521,-0.5231 0.447527,-0.78472 -0.271337,-0.15843 -0.537449,-0.32081 -0.787903,-0.49362 -2.316594,-1.5984 -3.696045,-3.75909 -3.696045,-6.12501 0,-2.36572 1.379451,-4.52594 3.696045,-6.12429 2.316584,-1.59835 5.557131,-2.60392 9.149404,-2.60392 3.581711,0 6.822173,1.00538 9.14162,2.60392 0.29037,0.20012 0.56602,0.40912 0.82621,0.62616 0.31625,-0.11553 0.63934,-0.22703 0.96102,-0.33945 -0.39534,-0.3634 -0.81368,-0.71265 -1.27466,-1.03036 -1.94407,-1.33971 -4.441018,-2.2685 -7.221695,-2.61397 2.030996,-3.364074 6.005967,-5.969074 10.903345,-6.623654 l -0.11964,-0.89505 c -5.304907,0.70905 -9.671333,3.62268 -11.785386,7.420774 -0.470517,-0.0339 -0.947786,-0.0514 -1.430868,-0.0514 -3.760023,0 -7.168447,1.04276 -9.662283,2.7634 -2.49384,1.72065 -4.08631,4.15012 -4.08631,6.86795 0,0.99057 0.21241,1.94252 0.601996,2.83613 -1.846721,2.42462 -2.793262,5.51652 -2.362796,8.75647 0.87314,6.56838 6.98957,11.17499 13.615121,10.3034 a 0.45169258,0.45169258 0 0 0 9.91e-4,-2.9e-4 c 1.256665,-0.16891 2.44218,-0.52271 3.533892,-1.0279 0.978701,2.10767 2.948168,3.82392 5.503245,4.99037 3.355398,1.53181 7.744768,2.15027 12.411038,1.52029 4.66537,-0.61935 8.73999,-2.36015 11.57908,-4.71032 0.7115,-0.58897 1.34079,-1.22077 1.8866,-1.88229 2.62273,0.85718 5.77612,1.14695 9.09389,0.71109 a 0.45169255,0.45169255 0 0 0 9.9e-4,-3e-4 c 4.00352,-0.53527 7.50049,-2.02388 9.94069,-4.0352 2.05092,-1.69045 3.36545,-3.77936 3.52528,-5.97095 5.37779,-2.5236 8.79036,-7.72765 8.05513,-13.25087 -0.53562,-4.02379 -3.16018,-7.30333 -6.80085,-9.194074 -0.82561,-1.47977 -2.22015,-2.78713 -4.00108,-3.83012 -2.93797,-1.7206 -6.94682,-2.76648 -11.36685,-2.76648 z" />
    <path
       style="opacity:0.99149;fill:#f2f2f2;stroke-width:1.90676;stroke-miterlimit:10;stroke-dasharray:5.04496, 5.04496"
       d="m 295.1305,180.11821 c -3.69964,-1.16402 -8.61848,-3.09607 -10.93076,-4.29344 -5.65047,-2.92598 -15.1349,-12.035 -15.1349,-14.53583 0,-3.52174 -4.67252,-3.97693 -12.71023,-1.23821 -9.4355,3.215 -21.19027,2.19512 -30.7171,-2.66511 -6.92513,-3.53293 -19.28844,-16.4884 -17.8916,-18.74854 0.44016,-0.7122 -0.11787,-1.60097 -1.24008,-1.97504 -3.30367,-1.10122 -3.85001,-22.96677 -0.75872,-30.36526 2.3418,-5.60472 6.14145,-8.547347 6.14145,-4.75623 0,0.81513 2.71262,3.55108 6.02805,6.07987 4.16646,3.17792 6.56719,4.05866 7.77389,2.85197 1.2067,-1.2067 -0.16208,-3.42104 -4.43229,-7.17034 -11.4786,-10.078343 -13.92271,-20.378993 -7.53304,-31.74787 10.91096,-19.413443 47.90233,-26.448244 72.46404,-13.780785 6.13192,3.162475 11.00477,4.738689 11.8956,3.847856 2.21418,-2.21418 -7.65982,-8.647889 -18.34702,-11.954567 -5.04448,-1.560789 -9.15938,-3.536615 -9.14422,-4.390722 0.0583,-3.282933 11.09827,-12.655589 20.13331,-17.092647 8.30202,-4.077069 11.38721,-4.640141 25.42431,-4.640141 14.13761,0 17.09209,0.548185 25.67845,4.764482 5.52933,2.715152 11.97947,7.597592 14.99593,11.351173 5.87153,7.306327 11.3586,9.324047 7.92893,2.915644 -1.68285,-3.144433 -1.3898,-4.144518 2.0429,-6.97163 6.29585,-5.185153 20.25929,-11.070482 31.09202,-13.104707 19.568,-3.674576 48.84861,1.314167 59.81014,10.190272 3.73553,3.024854 3.61697,3.056961 -8.17368,2.213344 -16.33182,-1.168535 -41.49919,6.243815 -36.88079,10.862214 0.53699,0.536986 5.92587,-0.648478 11.97529,-2.634365 48.0314,-15.767594 88.65511,27.482324 60.49346,64.404169 -8.96132,11.74889 -23.23052,18.71583 -42.8385,20.91591 -5.08701,0.57078 -9.04865,1.79452 -8.80365,2.71943 0.5237,1.97701 11.68955,2.17175 21.83647,0.38086 9.68631,-1.70961 9.29937,0.7074 -1.8406,11.49731 -13.14602,12.73294 -23.86173,16.49309 -47.34781,16.61441 -15.74088,0.0813 -19.71612,-0.46639 -26.66883,-3.67445 -9.72498,-4.4872 -13.79405,-3.22013 -7.0158,2.18466 l 4.71131,3.75667 -7.37485,5.36001 c -14.83204,10.77985 -29.97966,15.16575 -51.93873,15.03856 -8.78665,-0.0509 -19.00271,-1.04491 -22.70235,-2.20893 z"
       id="path906"
       transform="matrix(0.26458333,0,0,0.26458333,23.299,88.319756)" />
  </g>
</svg>
